Coordinates
version=1
nRows=4
nColumns=107
inDegrees=yes

Units are S.I. units (second, meters, Newtons, ...)
If the header above contains a line with 'inDegrees', this indicates whether rotational values are in degrees (yes) or radians (no).

endheader
time	sternoclavicular_r2	sternoclavicular_r3	unrotscap_r3	unrotscap_r2	acromioclavicular_r2	acromioclavicular_r3	acromioclavicular_r1	unrothum_r1	unrothum_r3	unrothum_r2	elv_angle	shoulder_elv	shoulder1_r2	shoulder_rot	elbow_flexion	pro_sup	deviation	flexion	proximal_distal_r1	proximal_distal_r3	cmc_flexion	cmc_abduction	mp_flexion	ip_flexion	mcp2_flexion	mcp2_abduction	pm2_flexion	md2_flexion	mcp3_flexion	mcp3_abduction	pm3_flexion	md3_flexion	mcp4_flexion	mcp4_abduction	pm4_flexion	md4_flexion	mcp5_flexion	mcp5_abduction	pm5_flexion	md5_flexion	bicpt_tx	bicpt_ty	bicpt_tz	bicpt2_tx	bicpt2_ty	bicpt2_tz	ptpt_tx	ptpt_ty	ptpt_tz	FCUpt_tx	FCUpt_ty	FCUpt_tz	EDCpt_tx	EDCpt_ty	EDCpt_tz	APLpt_tx	APLpt_ty	APLpt_tz	FPLpt_tx	FPLpt_ty	FPLpt_tz	FPLpt2_tx	FPLpt2_ty	FPLpt2_tz	PEC1pt2_tx	PEC1pt2_ty	PEC1pt2_tz	PEC1pt3_tx	PEC1pt3_ty	PEC1pt3_tz	PEC2pt2_tx	PEC2pt2_ty	PEC2pt2_tz	PEC2pt3_tx	PEC2pt3_ty	PEC2pt3_tz	PEC3pt2_tx	PEC3pt2_ty	PEC3pt2_tz	PEC3pt3_tx	PEC3pt3_ty	PEC3pt3_tz	DELT2pt2a_tx	DELT2pt2a_ty	DELT2pt2a_tz	DELT2pt2_tx	DELT2pt2_ty	DELT2pt2_tz	LAT1pt2_tx	LAT1pt2_ty	LAT1pt2_tz	LAT1pt3_tx	LAT1pt3_ty	LAT1pt3_tz	LAT2pt2_tx	LAT2pt2_ty	LAT2pt2_tz	LAT2pt3_tx	LAT2pt3_ty	LAT2pt3_tz	LAT3pt2_tx	LAT3pt2_ty	LAT3pt2_tz	LAT3pt3_tx	LAT3pt3_ty	LAT3pt3_tz
      1.70000000	     -0.32255345	      0.13661842	     -0.13661842	      0.32255345	     -0.06531051	      0.52781659	      0.23724992	     -0.23724992	     -0.52781659	      0.06531051	     98.71830024	     76.36739673	     -1.72295937	    -23.97446096	     31.78383921	     63.30824738	      0.23492718	     -0.13421127	      0.27365523	     -0.06710563	     20.73719842	    -12.02828328	     -7.90953862	      1.29842985	      2.93978763	      9.64485306	     30.02948969	     -9.05659929	     10.46010367	      3.48236784	     22.10771068	     21.82622938	     27.42632504	     -3.76032593	     -6.63536467	     25.56301652	     34.82608395	    -13.23579374	     -6.40350132	      5.06916106	      0.00095131	     -0.03124291	     -0.00488678	      0.01599652	     -0.01883424	     -0.00460098	      0.00287223	     -0.06792472	     -0.00514982	      0.01021072	     -0.18293307	     -0.00034732	     -0.00759697	      0.00241223	     -0.00016813	      0.00012223	      0.00004889	      0.00024446	      0.00015646	      0.00046937	      0.00026402	      0.00001002	     -0.00027953	     -0.00033544	      0.00250316	      0.00878226	      0.00610940	     -0.00818829	      0.01977069	     -0.01875245	      0.00250316	      0.00878226	      0.00610940	      0.00055154	      0.01832819	     -0.00963079	      0.00395552	      0.00488370	      0.01598614	      0.00000000	      0.00779976	      0.00000000	     -0.00717006	     -0.03313499	     -0.00643137	      0.01596410	     -0.00055703	     -0.00479884	     -0.00089095	      0.01493408	     -0.00610940	      0.00246073	      0.02155259	     -0.01781907	     -0.00598212	      0.01294004	     -0.00547300	     -0.01247335	      0.02732258	     -0.03058941	     -0.02341935	      0.01446739	     -0.00733976	     -0.01552805	      0.03156522	     -0.03822616
      1.73333333	     -0.32620099	      0.13816334	     -0.13816334	      0.32620099	     -0.06604907	      0.53378531	      0.23993282	     -0.23993282	     -0.53378531	      0.06604907	     98.25135487	     77.23098433	     -1.71480964	    -20.07518023	     30.51084488	     59.25701553	      0.22753396	     -0.33042347	      0.26642028	     -0.16521173	     17.96537230	    -10.63911224	    -12.63105821	      5.55614598	      8.79535239	      9.16714733	     31.43892344	     -8.78284454	     18.32665727	      2.87498951	     19.70333452	     18.20926201	     34.21113245	     -4.48521620	     -6.79610413	     21.29331063	     38.12449075	    -13.36355269	     -1.63267402	      4.99751634	      0.00090920	     -0.03109701	     -0.00486328	      0.01618632	     -0.01848842	     -0.00515442	      0.00317158	     -0.06773116	     -0.00482347	      0.00977622	     -0.18304184	     -0.00038353	     -0.00711083	      0.00222081	     -0.00009229	      0.00024668	      0.00009867	      0.00049336	      0.00031575	      0.00094724	      0.00053282	      0.00001683	     -0.00026985	     -0.00032382	      0.00253146	      0.00888157	      0.00617848	     -0.00828088	      0.01999426	     -0.01896451	      0.00253146	      0.00888157	      0.00617848	      0.00055778	      0.01853545	     -0.00973969	      0.00398801	      0.00493893	      0.01606476	      0.00000000	      0.00797845	      0.00000000	     -0.00725114	     -0.03350969	     -0.00657969	      0.01381966	     -0.00043424	     -0.00332426	     -0.00090103	      0.01510296	     -0.00617848	      0.00248856	      0.02179632	     -0.01802058	     -0.00604977	      0.01308637	     -0.00553489	     -0.01261440	      0.02763155	     -0.03093533	     -0.02368419	      0.01463099	     -0.00742276	     -0.01570365	      0.03192217	     -0.03865843
      1.76666667	     -0.32736954	      0.13865829	     -0.13865829	      0.32736954	     -0.06628567	      0.53569749	      0.24079234	     -0.24079234	     -0.53569749	      0.06628567	     98.10915210	     77.50764919	     -1.71232773	    -19.00010981	     30.29074284	     59.38851719	      0.23620273	     -0.36592054	      0.27489493	     -0.18296027	     14.76210188	     -9.46336767	    -14.15945660	      5.87501046	     10.68820703	      8.66073273	     32.27808694	     -8.40003236	     20.20094563	      2.61381167	     21.47748085	     18.86572671	     36.82087386	     -4.45745607	     -5.16651125	     21.54516814	     39.65627773	    -13.16849510	     -0.85578424	      5.08536922	      0.00090192	     -0.03107178	     -0.00485921	      0.01618063	     -0.01842863	     -0.00513674	      0.00316186	     -0.06773744	     -0.00483406	      0.00979026	     -0.18303837	     -0.00038251	     -0.00712661	      0.00222696	     -0.00009464	      0.00026226	      0.00010490	      0.00052452	      0.00033569	      0.00100708	      0.00056648	      0.00002429	     -0.00024799	     -0.00029758	      0.00254053	      0.00891339	      0.00620062	     -0.00831055	      0.02006589	     -0.01903245	      0.00254053	      0.00891339	      0.00620062	      0.00055978	      0.01860185	     -0.00977458	      0.00399836	      0.00495662	      0.01608957	      0.00000000	      0.00803614	      0.00000000	     -0.00727711	     -0.03362974	     -0.00662756	      0.01319258	     -0.00040143	     -0.00295904	     -0.00090426	      0.01515706	     -0.00620062	      0.00249747	      0.02187440	     -0.01808513	     -0.00607144	      0.01313325	     -0.00555472	     -0.01265959	      0.02773054	     -0.03104615	     -0.02376903	      0.01468341	     -0.00744935	     -0.01575990	      0.03203652	     -0.03879692
      1.80000000	     -0.32772307	      0.13880803	     -0.13880803	      0.32772307	     -0.06635726	      0.53627600	      0.24105237	     -0.24105237	     -0.53627600	      0.06635726	     97.97574866	     77.59135064	     -1.70999940	    -18.66673373	     30.43316211	     60.44739071	      0.24434731	     -0.36897920	      0.28274425	     -0.18448960	     11.93606636	     -8.94261706	    -15.53655347	      5.52516341	     11.77518487	      7.49899940	     33.07926120	     -8.11921826	     21.51673188	      1.92987927	     22.25046581	     19.08328013	     38.23242310	     -4.73986006	     -4.48322943	     21.74910036	     40.20874774	    -13.01987417	     -0.36646638	      5.18081247	      0.00090663	     -0.03108811	     -0.00486184	      0.01613436	     -0.01846732	     -0.00499414	      0.00308362	     -0.06778804	     -0.00491936	      0.00990338	     -0.18301035	     -0.00037414	     -0.00725367	      0.00227654	     -0.00011367	      0.00026350	      0.00010540	      0.00052700	      0.00033728	      0.00101185	      0.00056916	      0.00002982	     -0.00021926	     -0.00026311	      0.00254327	      0.00892301	      0.00620731	     -0.00831952	      0.02008756	     -0.01905300	      0.00254327	      0.00892301	      0.00620731	      0.00056038	      0.01862194	     -0.00978514	      0.00400149	      0.00496197	      0.01609705	      0.00000000	      0.00805363	      0.00000000	     -0.00728497	     -0.03366605	     -0.00664208	      0.01299501	     -0.00039135	     -0.00284952	     -0.00090523	      0.01517343	     -0.00620731	      0.00250017	      0.02189802	     -0.01810466	     -0.00607799	      0.01314743	     -0.00556072	     -0.01267326	      0.02776048	     -0.03107967	     -0.02379470	      0.01469926	     -0.00745740	     -0.01577692	      0.03207112	     -0.03883881
